solid RGB_LED_matrix_3D_print
facet normal 0.007766484736713483 0.9999698385831944 6.0321923900724054e-05
  outer loop
    vertex 788.407147044253 112.90530385473713 1.0004524139743571
    vertex 780.4153963386361 112.96743760667283 -0.06164930250250595
    vertex 780.4076296196442 112.96743760667283 0.938320536080695
  endloop
endfacet
facet normal 0.007766484736713483 0.9999698385831944 6.0321923900724054e-05
  outer loop
    vertex 780.4153963386361 112.96743760667283 -0.06164930250250595
    vertex 788.407147044253 112.90530385473713 1.0004524139743571
    vertex 788.414913763245 112.90530385473713 0.0004825753911561925
  endloop
endfacet
facet normal -0.007766718991956542 2.1584571167750724e-15 0.9999698385831945
  outer loop
    vertex 788.3450151663593 104.90554514607152 0.9999698385831783
    vertex 787.3466287852303 105.11330583277997 0.9922154182312343
    vertex 780.3454977417505 104.96767889800726 0.9378379606895162
  endloop
endfacet
facet normal -0.007766718991956542 2.1584571167750724e-15 0.9999698385831945
  outer loop
    vertex 787.3466287852303 105.11330583277997 0.9922154182312343
    vertex 788.3450151663593 104.90554514607152 0.9999698385831783
    vertex 787.5538832405823 105.13895620973396 0.9938251538976863
  endloop
endfacet
facet normal -0.007766718991956542 2.1584571167750724e-15 0.9999698385831945
  outer loop
    vertex 787.5538832405823 105.13895620973396 0.9938251538976863
    vertex 788.3450151663593 104.90554514607152 0.9999698385831783
    vertex 787.7474370657862 105.21737558946472 0.9953284774102454
  endloop
endfacet
facet normal -0.007766718991956542 2.1584571167750724e-15 0.9999698385831945
  outer loop
    vertex 787.7474370657862 105.21737558946472 0.9953284774102454
    vertex 788.3450151663593 104.90554514607152 0.9999698385831783
    vertex 787.9140998875173 105.34321982083775 0.9966229397558469
  endloop
endfacet
facet normal -0.007766718991956542 2.1584571167750724e-15 0.9999698385831945
  outer loop
    vertex 787.9140998875173 105.34321982083775 0.9966229397558469
    vertex 788.3450151663593 104.90554514607152 0.9999698385831783
    vertex 788.042513909898 105.50791282745243 0.9976203254648734
  endloop
endfacet
facet normal -0.007766718991956542 2.1584571167750724e-15 0.9999698385831945
  outer loop
    vertex 788.042513909898 105.50791282745243 0.9976203254648734
    vertex 788.3450151663593 104.90554514607152 0.9999698385831783
    vertex 788.1239279295172 105.70023105307598 0.998252664349504
  endloop
endfacet
facet normal -0.007766718991956542 2.1584571167750724e-15 0.9999698385831945
  outer loop
    vertex 788.1239279295172 105.70023105307598 0.998252664349504
    vertex 788.3450151663593 104.90554514607152 0.9999698385831783
    vertex 788.1527937154807 105.90706832845311 0.9984768635597229
  endloop
endfacet
facet normal -0.007766718991956542 2.1584571167750724e-15 0.9999698385831945
  outer loop
    vertex 788.1527937154807 105.90706832845311 0.9984768635597229
    vertex 788.3450151663593 104.90554514607152 0.9999698385831783
    vertex 788.407147044253 112.90530385473713 1.0004524139743571
  endloop
endfacet
facet normal -0.007766718991956542 2.1584571167750724e-15 0.9999698385831945
  outer loop
    vertex 788.1527937154807 105.90706832845311 0.9984768635597229
    vertex 788.407147044253 112.90530385473713 1.0004524139743571
    vertex 788.1993926239011 111.90688735995225 0.998838795103121
  endloop
endfacet
facet normal -0.007766718991956542 2.1584571167750724e-15 0.9999698385831945
  outer loop
    vertex 788.1993926239011 111.90688735995225 0.998838795103121
    vertex 788.407147044253 112.90530385473713 1.0004524139743571
    vertex 788.1737430205987 112.11414806658067 0.9986395758332816
  endloop
endfacet
facet normal -0.007766718991956542 2.1584571167750724e-15 0.9999698385831945
  outer loop
    vertex 788.1737430205987 112.11414806658067 0.9986395758332816
    vertex 788.407147044253 112.90530385473713 1.0004524139743571
    vertex 788.0953260061076 112.30770772981825 0.9980305145473883
  endloop
endfacet
facet normal -0.007766718991956542 2.1584571167750724e-15 0.9999698385831945
  outer loop
    vertex 788.0953260061076 112.30770772981825 0.9980305145473883
    vertex 788.407147044253 112.90530385473713 1.0004524139743571
    vertex 787.969485570375 112.4743755784878 0.9970531177655555
  endloop
endfacet
facet normal -0.007766718991956542 2.1584571167750724e-15 0.9999698385831945
  outer loop
    vertex 787.969485570375 112.4743755784878 0.9970531177655555
    vertex 788.407147044253 112.90530385473713 1.0004524139743571
    vertex 787.8047975311348 112.60279347413412 0.9957739934632378
  endloop
endfacet
facet normal -0.007766718991956542 2.1584571167750724e-15 0.9999698385831945
  outer loop
    vertex 787.8047975311348 112.60279347413412 0.9957739934632378
    vertex 788.407147044253 112.90530385473713 1.0004524139743571
    vertex 787.6124851061013 112.68420994938951 0.9942803118477855
  endloop
endfacet
facet normal -0.007766718991956542 2.1584571167750724e-15 0.9999698385831945
  outer loop
    vertex 787.6124851061013 112.68420994938951 0.9942803118477855
    vertex 788.407147044253 112.90530385473713 1.0004524139743571
    vertex 787.4056540692295 112.71307660601244 0.9926738648528659
  endloop
endfacet
facet normal -0.007766718991956542 2.1584571167750724e-15 0.9999698385831945
  outer loop
    vertex 787.4056540692295 112.71307660601244 0.9926738648528659
    vertex 788.407147044253 112.90530385473713 1.0004524139743571
    vertex 786.6556993106725 112.7189016452565 0.9868490013003404
  endloop
endfacet
facet normal -0.007766718991956542 2.1584571167750724e-15 0.9999698385831945
  outer loop
    vertex 786.6556993106725 112.7189016452565 0.9868490013003404
    vertex 788.407147044253 112.90530385473713 1.0004524139743571
    vertex 781.406016000773 112.75967691996426 0.9460749564326277
  endloop
endfacet
facet normal -0.007766718991956542 2.1584571167750724e-15 0.9999698385831945
  outer loop
    vertex 780.3454977417505 104.96767889800726 0.9378379606895162
    vertex 780.5532521621025 105.96609539279208 0.9394515795607523
    vertex 780.4076296196442 112.96743760667283 0.938320536080695
  endloop
endfacet
facet normal -0.007766718991956542 2.1584571167750724e-15 0.9999698385831945
  outer loop
    vertex 780.5532521621025 105.96609539279208 0.9394515795607523
    vertex 780.3454977417505 104.96767889800726 0.9378379606895162
    vertex 780.5789017654047 105.75883468616365 0.939650798830603
  endloop
endfacet
facet normal -0.007766718991956542 2.1584571167750724e-15 0.9999698385831945
  outer loop
    vertex 780.5789017654047 105.75883468616365 0.939650798830603
    vertex 780.3454977417505 104.96767889800726 0.9378379606895162
    vertex 780.657318779896 105.5652750229261 0.9402598601164849
  endloop
endfacet
facet normal -0.007766718991956542 2.1584571167750724e-15 0.9999698385831945
  outer loop
    vertex 780.657318779896 105.5652750229261 0.9402598601164849
    vertex 780.3454977417505 104.96767889800726 0.9378379606895162
    vertex 780.7831592156286 105.39860717425658 0.9412372568983178
  endloop
endfacet
facet normal -0.007766718991956542 2.1584571167750724e-15 0.9999698385831945
  outer loop
    vertex 780.7831592156286 105.39860717425658 0.9412372568983178
    vertex 780.3454977417505 104.96767889800726 0.9378379606895162
    vertex 780.9478472548689 105.27018927861027 0.9425163812006354
  endloop
endfacet
facet normal -0.007766718991956542 2.1584571167750724e-15 0.9999698385831945
  outer loop
    vertex 780.9478472548689 105.27018927861027 0.9425163812006354
    vertex 780.3454977417505 104.96767889800726 0.9378379606895162
    vertex 781.1401596799022 105.18877280335488 0.9440100628160877
  endloop
endfacet
facet normal -0.007766718991956542 2.1584571167750724e-15 0.9999698385831945
  outer loop
    vertex 781.1401596799022 105.18877280335488 0.9440100628160877
    vertex 780.3454977417505 104.96767889800726 0.9378379606895162
    vertex 781.3469907167739 105.15990614673196 0.9456165098110074
  endloop
endfacet
facet normal -0.007766718991956542 2.1584571167750724e-15 0.9999698385831945
  outer loop
    vertex 781.3469907167739 105.15990614673196 0.9456165098110074
    vertex 780.3454977417505 104.96767889800726 0.9378379606895162
    vertex 782.0969454753308 105.15408110748774 0.951441373363533
  endloop
endfacet
facet normal -0.007766718991956542 2.1584571167750724e-15 0.9999698385831945
  outer loop
    vertex 782.0969454753308 105.15408110748774 0.951441373363533
    vertex 780.3454977417505 104.96767889800726 0.9378379606895162
    vertex 787.3466287852303 105.11330583277997 0.9922154182312343
  endloop
endfacet
facet normal -0.007766718991956542 2.1584571167750724e-15 0.9999698385831945
  outer loop
    vertex 780.4076296196442 112.96743760667283 0.938320536080695
    vertex 780.5532521621025 105.96609539279208 0.9394515795607523
    vertex 780.5998510705227 111.96591442429124 0.9398135111041391
  endloop
endfacet
facet normal -0.007766718991956542 2.1584571167750724e-15 0.9999698385831945
  outer loop
    vertex 780.4076296196442 112.96743760667283 0.938320536080695
    vertex 780.5998510705227 111.96591442429124 0.9398135111041391
    vertex 780.6287168564863 112.1727516996683 0.9400377103143693
  endloop
endfacet
facet normal -0.007766718991956542 2.1584571167750724e-15 0.9999698385831945
  outer loop
    vertex 780.4076296196442 112.96743760667283 0.938320536080695
    vertex 780.6287168564863 112.1727516996683 0.9400377103143693
    vertex 780.7101308761055 112.36506992529185 0.9406700491989886
  endloop
endfacet
facet normal -0.007766718991956542 2.1584571167750724e-15 0.9999698385831945
  outer loop
    vertex 780.4076296196442 112.96743760667283 0.938320536080695
    vertex 780.7101308761055 112.36506992529185 0.9406700491989886
    vertex 780.8385448984861 112.52976293190649 0.9416674349080151
  endloop
endfacet
facet normal -0.007766718991956542 2.1584571167750724e-15 0.9999698385831945
  outer loop
    vertex 780.4076296196442 112.96743760667283 0.938320536080695
    vertex 780.8385448984861 112.52976293190649 0.9416674349080151
    vertex 781.0052077202172 112.65560716327951 0.9429618972536166
  endloop
endfacet
facet normal -0.007766718991956542 2.1584571167750724e-15 0.9999698385831945
  outer loop
    vertex 780.4076296196442 112.96743760667283 0.938320536080695
    vertex 781.0052077202172 112.65560716327951 0.9429618972536166
    vertex 781.1987615454211 112.73402654301027 0.9444652207661757
  endloop
endfacet
facet normal -0.007766718991956542 2.1584571167750724e-15 0.9999698385831945
  outer loop
    vertex 780.4076296196442 112.96743760667283 0.938320536080695
    vertex 781.1987615454211 112.73402654301027 0.9444652207661757
    vertex 781.406016000773 112.75967691996426 0.9460749564326277
  endloop
endfacet
facet normal -0.007766718991956542 2.1584571167750724e-15 0.9999698385831945
  outer loop
    vertex 780.4076296196442 112.96743760667283 0.938320536080695
    vertex 781.406016000773 112.75967691996426 0.9460749564326277
    vertex 788.407147044253 112.90530385473713 1.0004524139743571
  endloop
endfacet
facet normal -0.007766718991956542 2.1584571167750724e-15 0.9999698385831945
  outer loop
    vertex 786.5966740266734 105.11913087202419 0.9863905546787087
    vertex 782.0969454753308 105.15408110748774 0.951441373363533
    vertex 787.3466287852303 105.11330583277997 0.9922154182312343
  endloop
endfacet
facet normal -0.007766718991956542 2.1584571167750724e-15 0.9999698385831945
  outer loop
    vertex 782.0969454753308 105.15408110748774 0.951441373363533
    vertex 786.5966740266734 105.11913087202419 0.9863905546787087
    vertex 782.3041999306827 105.17973148444173 0.953051109029985
  endloop
endfacet
facet normal -0.007766718991956542 2.1584571167750724e-15 0.9999698385831945
  outer loop
    vertex 782.3041999306827 105.17973148444173 0.953051109029985
    vertex 786.5966740266734 105.11913087202419 0.9863905546787087
    vertex 786.3898429898017 105.14799752864711 0.984784107683789
  endloop
endfacet
facet normal -0.007766718991956542 2.1584571167750724e-15 0.9999698385831945
  outer loop
    vertex 782.3041999306827 105.17973148444173 0.953051109029985
    vertex 786.3898429898017 105.14799752864711 0.984784107683789
    vertex 782.4977537558867 105.25815086417249 0.9545544325425328
  endloop
endfacet
facet normal -0.007766718991956542 2.1584571167750724e-15 0.9999698385831945
  outer loop
    vertex 782.4977537558867 105.25815086417249 0.9545544325425328
    vertex 786.3898429898017 105.14799752864711 0.984784107683789
    vertex 786.1975305647684 105.2294140039025 0.983290426068348
  endloop
endfacet
facet normal -0.007766718991956542 2.1584571167750724e-15 0.9999698385831945
  outer loop
    vertex 782.4977537558867 105.25815086417249 0.9545544325425328
    vertex 786.1975305647684 105.2294140039025 0.983290426068348
    vertex 782.6644165776178 105.38399509554553 0.9558488948881456
  endloop
endfacet
facet normal -0.007766718991956542 2.1584571167750724e-15 0.9999698385831945
  outer loop
    vertex 782.6644165776178 105.38399509554553 0.9558488948881456
    vertex 786.1975305647684 105.2294140039025 0.983290426068348
    vertex 786.032842525528 105.3578318995488 0.9820113017660191
  endloop
endfacet
facet normal -0.007766718991956542 2.1584571167750724e-15 0.9999698385831945
  outer loop
    vertex 782.6644165776178 105.38399509554553 0.9558488948881456
    vertex 786.032842525528 105.3578318995488 0.9820113017660191
    vertex 782.7928305999985 105.5486881021602 0.9568462805971721
  endloop
endfacet
facet normal -0.007766718991956542 2.1584571167750724e-15 0.9999698385831945
  outer loop
    vertex 782.7928305999985 105.5486881021602 0.9568462805971721
    vertex 786.032842525528 105.3578318995488 0.9820113017660191
    vertex 785.9070020897954 105.52449974821833 0.9810339049841975
  endloop
endfacet
facet normal -0.007766718991956542 2.1584571167750724e-15 0.9999698385831945
  outer loop
    vertex 782.7928305999985 105.5486881021602 0.9568462805971721
    vertex 785.9070020897954 105.52449974821833 0.9810339049841975
    vertex 782.8742446196177 105.74100632778375 0.9574786194818027
  endloop
endfacet
facet normal -0.007766718991956542 2.1584571167750724e-15 0.9999698385831945
  outer loop
    vertex 782.8742446196177 105.74100632778375 0.9574786194818027
    vertex 785.9070020897954 105.52449974821833 0.9810339049841975
    vertex 785.8285850753042 105.71805941145588 0.9804248436983043
  endloop
endfacet
facet normal -0.007766718991956542 2.1584571167750724e-15 0.9999698385831945
  outer loop
    vertex 782.8742446196177 105.74100632778375 0.9574786194818027
    vertex 785.8285850753042 105.71805941145588 0.9804248436983043
    vertex 782.9031104055813 105.94784360316088 0.9577028186920216
  endloop
endfacet
facet normal -0.007766718991956542 2.1584571167750724e-15 0.9999698385831945
  outer loop
    vertex 782.9031104055813 105.94784360316088 0.9577028186920216
    vertex 785.8285850753042 105.71805941145588 0.9804248436983043
    vertex 785.8029354720019 105.9253201180843 0.9802256244284536
  endloop
endfacet
facet normal -0.007766718991956542 2.1584571167750724e-15 0.9999698385831945
  outer loop
    vertex 782.9031104055813 105.94784360316088 0.9577028186920216
    vertex 785.8029354720019 105.9253201180843 0.9802256244284536
    vertex 782.9497093140016 111.94766263466002 0.9580647502354084
  endloop
endfacet
facet normal -0.007766718991956542 2.1584571167750724e-15 0.9999698385831945
  outer loop
    vertex 782.9497093140016 111.94766263466002 0.9580647502354084
    vertex 785.8029354720019 105.9253201180843 0.9802256244284536
    vertex 785.8495343804221 111.92513914958347 0.9805875559718518
  endloop
endfacet
facet normal -0.007766718991956542 2.1584571167750724e-15 0.9999698385831945
  outer loop
    vertex 782.9497093140016 111.94766263466002 0.9580647502354084
    vertex 785.8495343804221 111.92513914958347 0.9805875559718518
    vertex 782.9240597106992 112.15492334128844 0.9578655309655689
  endloop
endfacet
facet normal -0.007766718991956542 2.1584571167750724e-15 0.9999698385831945
  outer loop
    vertex 782.9240597106992 112.15492334128844 0.9578655309655689
    vertex 785.8495343804221 111.92513914958347 0.9805875559718518
    vertex 785.8784001663859 112.13197642496053 0.9808117551820819
  endloop
endfacet
facet normal -0.007766718991956542 2.1584571167750724e-15 0.9999698385831945
  outer loop
    vertex 782.9240597106992 112.15492334128844 0.9578655309655689
    vertex 785.8784001663859 112.13197642496053 0.9808117551820819
    vertex 782.8456426962081 112.34848300452603 0.9572564696796757
  endloop
endfacet
facet normal -0.007766718991956542 2.1584571167750724e-15 0.9999698385831945
  outer loop
    vertex 782.8456426962081 112.34848300452603 0.9572564696796757
    vertex 785.8784001663859 112.13197642496053 0.9808117551820819
    vertex 785.959814186005 112.32429465058408 0.9814440940667124
  endloop
endfacet
facet normal -0.007766718991956542 2.1584571167750724e-15 0.9999698385831945
  outer loop
    vertex 782.8456426962081 112.34848300452603 0.9572564696796757
    vertex 785.959814186005 112.32429465058408 0.9814440940667124
    vertex 782.7198022604755 112.51515085319556 0.9562790728978429
  endloop
endfacet
facet normal -0.007766718991956542 2.1584571167750724e-15 0.9999698385831945
  outer loop
    vertex 782.7198022604755 112.51515085319556 0.9562790728978429
    vertex 785.959814186005 112.32429465058408 0.9814440940667124
    vertex 786.0882282083857 112.48898765719872 0.9824414797757277
  endloop
endfacet
facet normal -0.007766718991956542 2.1584571167750724e-15 0.9999698385831945
  outer loop
    vertex 782.7198022604755 112.51515085319556 0.9562790728978429
    vertex 786.0882282083857 112.48898765719872 0.9824414797757277
    vertex 782.5551142212353 112.64356874884189 0.954999948595514
  endloop
endfacet
facet normal -0.007766718991956542 2.1584571167750724e-15 0.9999698385831945
  outer loop
    vertex 782.5551142212353 112.64356874884189 0.954999948595514
    vertex 786.0882282083857 112.48898765719872 0.9824414797757277
    vertex 786.2548910301167 112.61483188857174 0.9837359421213404
  endloop
endfacet
facet normal -0.007766718991956542 2.1584571167750724e-15 0.9999698385831945
  outer loop
    vertex 782.5551142212353 112.64356874884189 0.954999948595514
    vertex 786.2548910301167 112.61483188857174 0.9837359421213404
    vertex 782.3628017962018 112.72498522409728 0.953506266980073
  endloop
endfacet
facet normal -0.007766718991956542 2.1584571167750724e-15 0.9999698385831945
  outer loop
    vertex 782.3628017962018 112.72498522409728 0.953506266980073
    vertex 786.2548910301167 112.61483188857174 0.9837359421213404
    vertex 786.4484448553206 112.6932512683025 0.9852392656338882
  endloop
endfacet
facet normal -0.007766718991956542 2.1584571167750724e-15 0.9999698385831945
  outer loop
    vertex 782.3628017962018 112.72498522409728 0.953506266980073
    vertex 786.4484448553206 112.6932512683025 0.9852392656338882
    vertex 782.1559707593301 112.75385188072022 0.9518998199851533
  endloop
endfacet
facet normal -0.007766718991956542 2.1584571167750724e-15 0.9999698385831945
  outer loop
    vertex 782.1559707593301 112.75385188072022 0.9518998199851533
    vertex 786.4484448553206 112.6932512683025 0.9852392656338882
    vertex 786.6556993106725 112.7189016452565 0.9868490013003404
  endloop
endfacet
facet normal -0.007766718991956542 2.1584571167750724e-15 0.9999698385831945
  outer loop
    vertex 782.1559707593301 112.75385188072022 0.9518998199851533
    vertex 786.6556993106725 112.7189016452565 0.9868490013003404
    vertex 781.406016000773 112.75967691996426 0.9460749564326277
  endloop
endfacet
facet normal 0.9999396780761 -0.0077667189919678565 0.007766484736707829
  outer loop
    vertex 788.3527818853513 104.90554514607152 -2.255973186038318e-14
    vertex 788.407147044253 112.90530385473713 1.0004524139743571
    vertex 788.3450151663593 104.90554514607152 0.9999698385831783
  endloop
endfacet
facet normal 0.9999396780761 -0.0077667189919678565 0.007766484736707829
  outer loop
    vertex 788.407147044253 112.90530385473713 1.0004524139743571
    vertex 788.3527818853513 104.90554514607152 -2.255973186038318e-14
    vertex 788.414913763245 112.90530385473713 0.0004825753911561925
  endloop
endfacet
facet normal -0.1382183600121689 -0.990401197736043 -0.0010735355410939722
  outer loop
    vertex 781.3469907167739 105.15990614673196 0.9456165098110074
    vertex 781.1129761634303 105.18877280335488 4.443904497857263
    vertex 781.1401596799022 105.18877280335488 0.9440100628160877
  endloop
endfacet
facet normal -0.1382183600121689 -0.990401197736043 -0.0010735355410939722
  outer loop
    vertex 781.1129761634303 105.18877280335488 4.443904497857263
    vertex 781.3469907167739 105.15990614673196 0.9456165098110074
    vertex 781.3198072003021 105.15990614673196 4.445510944852182
  endloop
endfacet
facet normal -0.9999396780761001 0.007766718991956577 -0.00776648473670783
  outer loop
    vertex 780.4076296196442 112.96743760667283 0.938320536080695
    vertex 780.3532644607425 104.96767889800726 -0.06213187789369598
    vertex 780.3454977417505 104.96767889800726 0.9378379606895162
  endloop
endfacet
facet normal -0.9999396780761001 0.007766718991956577 -0.00776648473670783
  outer loop
    vertex 780.3532644607425 104.96767889800726 -0.06213187789369598
    vertex 780.4076296196442 112.96743760667283 0.938320536080695
    vertex 780.4153963386361 112.96743760667283 -0.06164930250250595
  endloop
endfacet
facet normal 0.12281827724582145 -0.9924287182481761 0.0009539238181409263
  outer loop
    vertex 782.3041999306827 105.17973148444173 0.953051109029985
    vertex 782.0697619588591 105.15408110748774 4.451335808404708
    vertex 782.0969454753308 105.15408110748774 0.951441373363533
  endloop
endfacet
facet normal 0.12281827724582145 -0.9924287182481761 0.0009539238181409263
  outer loop
    vertex 782.0697619588591 105.15408110748774 4.451335808404708
    vertex 782.3041999306827 105.17973148444173 0.953051109029985
    vertex 782.277016414211 105.17973148444173 4.45294554407116
  endloop
endfacet
facet normal 0.00776648473682818 0.9999698385831935 6.032192389839198e-05
  outer loop
    vertex 782.1287872428582 112.75385188072022 4.4517942550263285
    vertex 781.406016000773 112.75967691996426 0.9460749564326277
    vertex 781.378832484301 112.75967691996429 4.4459693914738025
  endloop
endfacet
facet normal 0.00776648473682818 0.9999698385831935 6.032192389839198e-05
  outer loop
    vertex 781.406016000773 112.75967691996426 0.9460749564326277
    vertex 782.1287872428582 112.75385188072022 4.4517942550263285
    vertex 782.1559707593301 112.75385188072022 0.9518998199851533
  endloop
endfacet
facet normal -0.12281827724587463 0.9924287182481697 -0.0009539238181413394
  outer loop
    vertex 781.378832484301 112.75967691996429 4.4459693914738025
    vertex 781.1987615454211 112.73402654301027 0.9444652207661757
    vertex 781.1715780289492 112.73402654301027 4.44435965580735
  endloop
endfacet
facet normal -0.12281827724587463 0.9924287182481697 -0.0009539238181413394
  outer loop
    vertex 781.1987615454211 112.73402654301027 0.9444652207661757
    vertex 781.378832484301 112.75967691996429 4.4459693914738025
    vertex 781.406016000773 112.75967691996426 0.9460749564326277
  endloop
endfacet
facet normal -0.3898356444520037 -0.9208794723135745 -0.003027835227304944
  outer loop
    vertex 781.1401596799022 105.18877280335488 0.9440100628160877
    vertex 780.9206637383969 105.27018927861027 4.442410816241811
    vertex 780.9478472548689 105.27018927861027 0.9425163812006354
  endloop
endfacet
facet normal -0.3898356444520037 -0.9208794723135745 -0.003027835227304944
  outer loop
    vertex 780.9206637383969 105.27018927861027 4.442410816241811
    vertex 781.1401596799022 105.18877280335488 0.9440100628160877
    vertex 781.1129761634303 105.18877280335488 4.443904497857263
  endloop
endfacet
facet normal -0.7980334200381176 -0.6025813154461418 -0.00619828826878049
  outer loop
    vertex 780.657318779896 105.5652750229261 0.9402598601164849
    vertex 780.7559756991567 105.3986071742566 4.441131691939493
    vertex 780.630135263424 105.5652750229261 4.44015429515766
  endloop
endfacet
facet normal -0.7980334200381176 -0.6025813154461418 -0.00619828826878049
  outer loop
    vertex 780.7559756991567 105.3986071742566 4.441131691939493
    vertex 780.657318779896 105.5652750229261 0.9402598601164849
    vertex 780.7831592156286 105.39860717425658 0.9412372568983178
  endloop
endfacet
facet normal 0.9208516972839839 -0.3898474028020067 0.007152212086921763
  outer loop
    vertex 782.7928305999985 105.5486881021602 0.9568462805971721
    vertex 782.8470611031458 105.74100632778378 4.457373054522978
    vertex 782.7656470835266 105.5486881021602 4.456740715638347
  endloop
endfacet
facet normal 0.9208516972839839 -0.3898474028020067 0.007152212086921763
  outer loop
    vertex 782.8470611031458 105.74100632778378 4.457373054522978
    vertex 782.7928305999985 105.5486881021602 0.9568462805971721
    vertex 782.8742446196177 105.74100632778375 0.9574786194818027
  endloop
endfacet
facet normal -0.007766718991956538 2.5486963607935894e-15 0.9999698385831945
  outer loop
    vertex 782.277016414211 105.17973148444173 4.45294554407116
    vertex 781.3198072003021 105.15990614673196 4.445510944852182
    vertex 782.0697619588591 105.15408110748774 4.451335808404708
  endloop
endfacet
facet normal -0.007766718991956538 2.5486963607935894e-15 0.9999698385831945
  outer loop
    vertex 781.3198072003021 105.15990614673196 4.445510944852182
    vertex 782.277016414211 105.17973148444173 4.45294554407116
    vertex 781.1129761634303 105.18877280335488 4.443904497857263
  endloop
endfacet
facet normal -0.007766718991956538 2.5486963607935894e-15 0.9999698385831945
  outer loop
    vertex 781.1129761634303 105.18877280335488 4.443904497857263
    vertex 782.277016414211 105.17973148444173 4.45294554407116
    vertex 782.4705702394148 105.25815086417249 4.454448867583708
  endloop
endfacet
facet normal -0.007766718991956538 2.5486963607935894e-15 0.9999698385831945
  outer loop
    vertex 781.1129761634303 105.18877280335488 4.443904497857263
    vertex 782.4705702394148 105.25815086417249 4.454448867583708
    vertex 780.9206637383969 105.27018927861027 4.442410816241811
  endloop
endfacet
facet normal -0.007766718991956538 2.5486963607935894e-15 0.9999698385831945
  outer loop
    vertex 780.9206637383969 105.27018927861027 4.442410816241811
    vertex 782.4705702394148 105.25815086417249 4.454448867583708
    vertex 782.6372330611459 105.38399509554553 4.45574332992932
  endloop
endfacet
facet normal -0.007766718991956538 2.5486963607935894e-15 0.9999698385831945
  outer loop
    vertex 780.9206637383969 105.27018927861027 4.442410816241811
    vertex 782.6372330611459 105.38399509554553 4.45574332992932
    vertex 780.7559756991567 105.3986071742566 4.441131691939493
  endloop
endfacet
facet normal -0.007766718991956538 2.5486963607935894e-15 0.9999698385831945
  outer loop
    vertex 780.7559756991567 105.3986071742566 4.441131691939493
    vertex 782.6372330611459 105.38399509554553 4.45574332992932
    vertex 782.7656470835266 105.5486881021602 4.456740715638347
  endloop
endfacet
facet normal -0.007766718991956538 2.5486963607935894e-15 0.9999698385831945
  outer loop
    vertex 780.7559756991567 105.3986071742566 4.441131691939493
    vertex 782.7656470835266 105.5486881021602 4.456740715638347
    vertex 780.630135263424 105.5652750229261 4.44015429515766
  endloop
endfacet
facet normal -0.007766718991956538 2.5486963607935894e-15 0.9999698385831945
  outer loop
    vertex 780.630135263424 105.5652750229261 4.44015429515766
    vertex 782.7656470835266 105.5486881021602 4.456740715638347
    vertex 782.8470611031458 105.74100632778378 4.457373054522978
  endloop
endfacet
facet normal -0.007766718991956538 2.5486963607935894e-15 0.9999698385831945
  outer loop
    vertex 780.630135263424 105.5652750229261 4.44015429515766
    vertex 782.8470611031458 105.74100632778378 4.457373054522978
    vertex 780.551718248933 105.75883468616365 4.439545233871778
  endloop
endfacet
facet normal -0.007766718991956538 2.5486963607935894e-15 0.9999698385831945
  outer loop
    vertex 780.551718248933 105.75883468616365 4.439545233871778
    vertex 782.8470611031458 105.74100632778378 4.457373054522978
    vertex 782.8759268891095 105.94784360316088 4.457597253733196
  endloop
endfacet
facet normal -0.007766718991956538 2.5486963607935894e-15 0.9999698385831945
  outer loop
    vertex 780.551718248933 105.75883468616365 4.439545233871778
    vertex 782.8759268891095 105.94784360316088 4.457597253733196
    vertex 780.5260686456306 105.96609539279208 4.439346014601927
  endloop
endfacet
facet normal -0.007766718991956538 2.5486963607935894e-15 0.9999698385831945
  outer loop
    vertex 780.5260686456306 105.96609539279208 4.439346014601927
    vertex 782.8759268891095 105.94784360316088 4.457597253733196
    vertex 782.9225257975297 111.94766263466005 4.457959185276583
  endloop
endfacet
facet normal -0.007766718991956538 2.5486963607935894e-15 0.9999698385831945
  outer loop
    vertex 780.5260686456306 105.96609539279208 4.439346014601927
    vertex 782.9225257975297 111.94766263466005 4.457959185276583
    vertex 780.5726675540508 111.96591442429124 4.439707946145314
  endloop
endfacet
facet normal -0.007766718991956538 2.5486963607935894e-15 0.9999698385831945
  outer loop
    vertex 780.5726675540508 111.96591442429124 4.439707946145314
    vertex 782.9225257975297 111.94766263466005 4.457959185276583
    vertex 782.8968761942275 112.15492334128847 4.457759966006744
  endloop
endfacet
facet normal -0.007766718991956538 2.5486963607935894e-15 0.9999698385831945
  outer loop
    vertex 780.5726675540508 111.96591442429124 4.439707946145314
    vertex 782.8968761942275 112.15492334128847 4.457759966006744
    vertex 780.6015333400145 112.17275169966832 4.439932145355544
  endloop
endfacet
facet normal -0.007766718991956538 2.5486963607935894e-15 0.9999698385831945
  outer loop
    vertex 780.6015333400145 112.17275169966832 4.439932145355544
    vertex 782.8968761942275 112.15492334128847 4.457759966006744
    vertex 782.8184591797362 112.34848300452605 4.457150904720851
  endloop
endfacet
facet normal -0.007766718991956538 2.5486963607935894e-15 0.9999698385831945
  outer loop
    vertex 780.6015333400145 112.17275169966832 4.439932145355544
    vertex 782.8184591797362 112.34848300452605 4.457150904720851
    vertex 780.6829473596337 112.36506992529185 4.440564484240164
  endloop
endfacet
facet normal -0.007766718991956538 2.5486963607935894e-15 0.9999698385831945
  outer loop
    vertex 780.6829473596337 112.36506992529185 4.440564484240164
    vertex 782.8184591797362 112.34848300452605 4.457150904720851
    vertex 782.6926187440037 112.51515085319556 4.456173507939018
  endloop
endfacet
facet normal -0.007766718991956538 2.5486963607935894e-15 0.9999698385831945
  outer loop
    vertex 780.6829473596337 112.36506992529185 4.440564484240164
    vertex 782.6926187440037 112.51515085319556 4.456173507939018
    vertex 780.8113613820142 112.52976293190649 4.44156186994919
  endloop
endfacet
facet normal -0.007766718991956538 2.5486963607935894e-15 0.9999698385831945
  outer loop
    vertex 780.8113613820142 112.52976293190649 4.44156186994919
    vertex 782.6926187440037 112.51515085319556 4.456173507939018
    vertex 782.5279307047634 112.64356874884189 4.454894383636689
  endloop
endfacet
facet normal -0.007766718991956538 2.5486963607935894e-15 0.9999698385831945
  outer loop
    vertex 780.8113613820142 112.52976293190649 4.44156186994919
    vertex 782.5279307047634 112.64356874884189 4.454894383636689
    vertex 780.9780242037453 112.65560716327951 4.442856332294792
  endloop
endfacet
facet normal -0.007766718991956538 2.5486963607935894e-15 0.9999698385831945
  outer loop
    vertex 780.9780242037453 112.65560716327951 4.442856332294792
    vertex 782.5279307047634 112.64356874884189 4.454894383636689
    vertex 782.3356182797299 112.72498522409731 4.453400702021248
  endloop
endfacet
facet normal -0.007766718991956538 2.5486963607935894e-15 0.9999698385831945
  outer loop
    vertex 780.9780242037453 112.65560716327951 4.442856332294792
    vertex 782.3356182797299 112.72498522409731 4.453400702021248
    vertex 781.1715780289492 112.73402654301027 4.44435965580735
  endloop
endfacet
facet normal -0.007766718991956538 2.5486963607935894e-15 0.9999698385831945
  outer loop
    vertex 781.1715780289492 112.73402654301027 4.44435965580735
    vertex 782.3356182797299 112.72498522409731 4.453400702021248
    vertex 782.1287872428582 112.75385188072022 4.4517942550263285
  endloop
endfacet
facet normal -0.007766718991956538 2.5486963607935894e-15 0.9999698385831945
  outer loop
    vertex 781.1715780289492 112.73402654301027 4.44435965580735
    vertex 782.1287872428582 112.75385188072022 4.4517942550263285
    vertex 781.378832484301 112.75967691996429 4.4459693914738025
  endloop
endfacet
facet normal -0.9208516972839595 0.38984740280206376 -0.007152212086921575
  outer loop
    vertex 785.959814186005 112.32429465058408 0.9814440940667124
    vertex 785.851216649914 112.13197642496056 4.480706190223246
    vertex 785.9326306695332 112.32429465058408 4.481338529107876
  endloop
endfacet
facet normal -0.9208516972839595 0.38984740280206376 -0.007152212086921575
  outer loop
    vertex 785.851216649914 112.13197642496056 4.480706190223246
    vertex 785.959814186005 112.32429465058408 0.9814440940667124
    vertex 785.8784001663859 112.13197642496053 0.9808117551820819
  endloop
endfacet
facet normal 0.798033420038344 0.6025813154458419 0.006198288268782248
  outer loop
    vertex 782.8456426962081 112.34848300452603 0.9572564696796757
    vertex 782.6926187440037 112.51515085319556 4.456173507939018
    vertex 782.8184591797362 112.34848300452605 4.457150904720851
  endloop
endfacet
facet normal 0.798033420038344 0.6025813154458419 0.006198288268782248
  outer loop
    vertex 782.6926187440037 112.51515085319556 4.456173507939018
    vertex 782.8456426962081 112.34848300452603 0.9572564696796757
    vertex 782.7198022604755 112.51515085319556 0.9562790728978429
  endloop
endfacet
facet normal -0.3754850518764385 0.9268238616776697 -0.0029163748456041733
  outer loop
    vertex 781.1715780289492 112.73402654301027 4.44435965580735
    vertex 781.0052077202172 112.65560716327951 0.9429618972536166
    vertex 780.9780242037453 112.65560716327951 4.442856332294792
  endloop
endfacet
facet normal -0.3754850518764385 0.9268238616776697 -0.0029163748456041733
  outer loop
    vertex 781.0052077202172 112.65560716327951 0.9429618972536166
    vertex 781.1715780289492 112.73402654301027 4.44435965580735
    vertex 781.1987615454211 112.73402654301027 0.9444652207661757
  endloop
endfacet
facet normal 0.38983564445189733 0.9208794723136197 0.003027835227304118
  outer loop
    vertex 782.5279307047634 112.64356874884189 4.454894383636689
    vertex 782.3628017962018 112.72498522409728 0.953506266980073
    vertex 782.3356182797299 112.72498522409731 4.453400702021248
  endloop
endfacet
facet normal 0.38983564445189733 0.9208794723136197 0.003027835227304118
  outer loop
    vertex 782.3628017962018 112.72498522409728 0.953506266980073
    vertex 782.5279307047634 112.64356874884189 4.454894383636689
    vertex 782.5551142212353 112.64356874884189 0.954999948595514
  endloop
endfacet
facet normal 0.6148862739563195 0.7886013326782083 0.004775792946509553
  outer loop
    vertex 782.6926187440037 112.51515085319556 4.456173507939018
    vertex 782.5551142212353 112.64356874884189 0.954999948595514
    vertex 782.5279307047634 112.64356874884189 4.454894383636689
  endloop
endfacet
facet normal 0.6148862739563195 0.7886013326782083 0.004775792946509553
  outer loop
    vertex 782.5551142212353 112.64356874884189 0.954999948595514
    vertex 782.6926187440037 112.51515085319556 4.456173507939018
    vertex 782.7198022604755 112.51515085319556 0.9562790728978429
  endloop
endfacet
facet normal 0.6148862739563195 0.7886013326782085 0.004775792946509553
  outer loop
    vertex 787.9423020539032 112.4743755784878 4.496947552806719
    vertex 787.8047975311348 112.60279347413412 0.9957739934632378
    vertex 787.7776140146628 112.60279347413412 4.495668428504401
  endloop
endfacet
facet normal 0.6148862739563195 0.7886013326782085 0.004775792946509553
  outer loop
    vertex 787.8047975311348 112.60279347413412 0.9957739934632378
    vertex 787.9423020539032 112.4743755784878 4.496947552806719
    vertex 787.969485570375 112.4743755784878 0.9970531177655555
  endloop
endfacet
facet normal -0.6148862739562857 -0.7886013326782346 -0.004775792946509291
  outer loop
    vertex 780.9478472548689 105.27018927861027 0.9425163812006354
    vertex 780.7559756991567 105.3986071742566 4.441131691939493
    vertex 780.7831592156286 105.39860717425658 0.9412372568983178
  endloop
endfacet
facet normal -0.6148862739562857 -0.7886013326782346 -0.004775792946509291
  outer loop
    vertex 780.7559756991567 105.3986071742566 4.441131691939493
    vertex 780.9478472548689 105.27018927861027 0.9425163812006354
    vertex 780.9206637383969 105.27018927861027 4.442410816241811
  endloop
endfacet
facet normal 0.3754850518762851 -0.9268238616777319 0.002916374845602983
  outer loop
    vertex 782.4977537558867 105.25815086417249 0.9545544325425328
    vertex 782.277016414211 105.17973148444173 4.45294554407116
    vertex 782.3041999306827 105.17973148444173 0.953051109029985
  endloop
endfacet
facet normal 0.3754850518762851 -0.9268238616777319 0.002916374845602983
  outer loop
    vertex 782.277016414211 105.17973148444173 4.45294554407116
    vertex 782.4977537558867 105.25815086417249 0.9545544325425328
    vertex 782.4705702394148 105.25815086417249 4.454448867583708
  endloop
endfacet
facet normal 0.1382183600121689 0.990401197736043 0.0010735355410939722
  outer loop
    vertex 782.3356182797299 112.72498522409731 4.453400702021248
    vertex 782.1559707593301 112.75385188072022 0.9518998199851533
    vertex 782.1287872428582 112.75385188072022 4.4517942550263285
  endloop
endfacet
facet normal 0.1382183600121689 0.990401197736043 0.0010735355410939722
  outer loop
    vertex 782.1559707593301 112.75385188072022 0.9518998199851533
    vertex 782.3356182797299 112.72498522409731 4.453400702021248
    vertex 782.3628017962018 112.72498522409728 0.953506266980073
  endloop
endfacet
facet normal 0.9999396780761001 -0.007766718991956577 0.00776648473670783
  outer loop
    vertex 782.9031104055813 105.94784360316088 0.9577028186920216
    vertex 782.9225257975297 111.94766263466005 4.457959185276583
    vertex 782.8759268891095 105.94784360316088 4.457597253733196
  endloop
endfacet
facet normal 0.9999396780761001 -0.007766718991956577 0.00776648473670783
  outer loop
    vertex 782.9225257975297 111.94766263466005 4.457959185276583
    vertex 782.9031104055813 105.94784360316088 0.9577028186920216
    vertex 782.9497093140016 111.94766263466002 0.9580647502354084
  endloop
endfacet
facet normal 0.926795907356877 0.3754963773791742 0.007198380488689531
  outer loop
    vertex 782.9240597106992 112.15492334128844 0.9578655309655689
    vertex 782.8184591797362 112.34848300452605 4.457150904720851
    vertex 782.8968761942275 112.15492334128847 4.457759966006744
  endloop
endfacet
facet normal 0.926795907356877 0.3754963773791742 0.007198380488689531
  outer loop
    vertex 782.8184591797362 112.34848300452605 4.457150904720851
    vertex 782.9240597106992 112.15492334128844 0.9578655309655689
    vertex 782.8456426962081 112.34848300452603 0.9572564696796757
  endloop
endfacet
facet normal -0.9903713258327356 0.1382225289993188 -0.007692167792113553
  outer loop
    vertex 780.6287168564863 112.1727516996683 0.9400377103143693
    vertex 780.5726675540508 111.96591442429124 4.439707946145314
    vertex 780.6015333400145 112.17275169966832 4.439932145355544
  endloop
endfacet
facet normal -0.9903713258327356 0.1382225289993188 -0.007692167792113553
  outer loop
    vertex 780.5726675540508 111.96591442429124 4.439707946145314
    vertex 780.6287168564863 112.1727516996683 0.9400377103143693
    vertex 780.5998510705227 111.96591442429124 0.9398135111041391
  endloop
endfacet
facet normal -0.7885775473447526 0.6149048203568602 -0.0061248449475959045
  outer loop
    vertex 780.8385448984861 112.52976293190649 0.9416674349080151
    vertex 780.6829473596337 112.36506992529185 4.440564484240164
    vertex 780.8113613820142 112.52976293190649 4.44156186994919
  endloop
endfacet
facet normal -0.7885775473447526 0.6149048203568602 -0.0061248449475959045
  outer loop
    vertex 780.6829473596337 112.36506992529185 4.440564484240164
    vertex 780.8385448984861 112.52976293190649 0.9416674349080151
    vertex 780.7101308761055 112.36506992529185 0.9406700491989886
  endloop
endfacet
facet normal -0.6025631407399092 0.7980574905827396 -0.004680079746875605
  outer loop
    vertex 786.2277075136449 112.61483188857174 4.483630377162504
    vertex 786.0882282083857 112.48898765719872 0.9824414797757277
    vertex 786.0610446919138 112.48898765719872 4.4823359148168915
  endloop
endfacet
facet normal -0.6025631407399092 0.7980574905827396 -0.004680079746875605
  outer loop
    vertex 786.0882282083857 112.48898765719872 0.9824414797757277
    vertex 786.2277075136449 112.61483188857174 4.483630377162504
    vertex 786.2548910301167 112.61483188857174 0.9837359421213404
  endloop
endfacet
facet normal -0.6025631407399092 0.7980574905827396 -0.004680079746875605
  outer loop
    vertex 780.9780242037453 112.65560716327951 4.442856332294792
    vertex 780.8385448984861 112.52976293190649 0.9416674349080151
    vertex 780.8113613820142 112.52976293190649 4.44156186994919
  endloop
endfacet
facet normal -0.6025631407399092 0.7980574905827396 -0.004680079746875605
  outer loop
    vertex 780.8385448984861 112.52976293190649 0.9416674349080151
    vertex 780.9780242037453 112.65560716327951 4.442856332294792
    vertex 781.0052077202172 112.65560716327951 0.9429618972536166
  endloop
endfacet
facet normal 0.7885775473446025 -0.6149048203570529 0.006124844947594738
  outer loop
    vertex 782.6644165776178 105.38399509554553 0.9558488948881456
    vertex 782.7656470835266 105.5486881021602 4.456740715638347
    vertex 782.6372330611459 105.38399509554553 4.45574332992932
  endloop
endfacet
facet normal 0.7885775473446025 -0.6149048203570529 0.006124844947594738
  outer loop
    vertex 782.7656470835266 105.5486881021602 4.456740715638347
    vertex 782.6644165776178 105.38399509554553 0.9558488948881456
    vertex 782.7928305999985 105.5486881021602 0.9568462805971721
  endloop
endfacet
facet normal 0.6025631407399434 -0.7980574905827137 0.004680079746875871
  outer loop
    vertex 782.6644165776178 105.38399509554553 0.9558488948881456
    vertex 782.4705702394148 105.25815086417249 4.454448867583708
    vertex 782.4977537558867 105.25815086417249 0.9545544325425328
  endloop
endfacet
facet normal 0.6025631407399434 -0.7980574905827137 0.004680079746875871
  outer loop
    vertex 782.4705702394148 105.25815086417249 4.454448867583708
    vertex 782.6644165776178 105.38399509554553 0.9558488948881456
    vertex 782.6372330611459 105.38399509554553 4.45574332992932
  endloop
endfacet
facet normal 0.1382183600121689 0.990401197736043 0.0010735355410939722
  outer loop
    vertex 787.5853015896295 112.68420994938954 4.494174746888949
    vertex 787.4056540692295 112.71307660601244 0.9926738648528659
    vertex 787.3784705527577 112.71307660601246 4.49256829989403
  endloop
endfacet
facet normal 0.1382183600121689 0.990401197736043 0.0010735355410939722
  outer loop
    vertex 787.4056540692295 112.71307660601244 0.9926738648528659
    vertex 787.5853015896295 112.68420994938954 4.494174746888949
    vertex 787.6124851061013 112.68420994938951 0.9942803118477855
  endloop
endfacet
facet normal -0.9923987851919676 -0.12282198173070598 -0.007707914974180974
  outer loop
    vertex 780.5532521621025 105.96609539279208 0.9394515795607523
    vertex 780.551718248933 105.75883468616365 4.439545233871778
    vertex 780.5260686456306 105.96609539279208 4.439346014601927
  endloop
endfacet
facet normal -0.9923987851919676 -0.12282198173070598 -0.007707914974180974
  outer loop
    vertex 780.551718248933 105.75883468616365 4.439545233871778
    vertex 780.5532521621025 105.96609539279208 0.9394515795607523
    vertex 780.5789017654047 105.75883468616365 0.939650798830603
  endloop
endfacet
facet normal 0.9923987851919684 0.12282198173069903 0.00770791497418098
  outer loop
    vertex 782.9497093140016 111.94766263466002 0.9580647502354084
    vertex 782.8968761942275 112.15492334128847 4.457759966006744
    vertex 782.9225257975297 111.94766263466005 4.457959185276583
  endloop
endfacet
facet normal 0.9923987851919684 0.12282198173069903 0.00770791497418098
  outer loop
    vertex 782.8968761942275 112.15492334128847 4.457759966006744
    vertex 782.9497093140016 111.94766263466002 0.9580647502354084
    vertex 782.9240597106992 112.15492334128844 0.9578655309655689
  endloop
endfacet
facet normal -0.9999396780761001 0.007766718991956577 -0.00776648473670783
  outer loop
    vertex 780.5726675540508 111.96591442429124 4.439707946145314
    vertex 780.5532521621025 105.96609539279208 0.9394515795607523
    vertex 780.5260686456306 105.96609539279208 4.439346014601927
  endloop
endfacet
facet normal -0.9999396780761001 0.007766718991956577 -0.00776648473670783
  outer loop
    vertex 780.5532521621025 105.96609539279208 0.9394515795607523
    vertex 780.5726675540508 111.96591442429124 4.439707946145314
    vertex 780.5998510705227 111.96591442429124 0.9398135111041391
  endloop
endfacet
facet normal 0.00776648473682818 0.9999698385831935 6.032192389839198e-05
  outer loop
    vertex 787.3784705527577 112.71307660601246 4.49256829989403
    vertex 786.6556993106725 112.7189016452565 0.9868490013003404
    vertex 786.6285157942007 112.71890164525651 4.486743436341504
  endloop
endfacet
facet normal 0.00776648473682818 0.9999698385831935 6.032192389839198e-05
  outer loop
    vertex 786.6556993106725 112.7189016452565 0.9868490013003404
    vertex 787.3784705527577 112.71307660601246 4.49256829989403
    vertex 787.4056540692295 112.71307660601244 0.9926738648528659
  endloop
endfacet
facet normal -0.9903713258326764 0.13822252899974308 -0.0076921677921130945
  outer loop
    vertex 785.8784001663859 112.13197642496053 0.9808117551820819
    vertex 785.8223508639503 111.92513914958347 4.480481991013016
    vertex 785.851216649914 112.13197642496056 4.480706190223246
  endloop
endfacet
facet normal -0.9903713258326764 0.13822252899974308 -0.0076921677921130945
  outer loop
    vertex 785.8223508639503 111.92513914958347 4.480481991013016
    vertex 785.8784001663859 112.13197642496053 0.9808117551820819
    vertex 785.8495343804221 111.92513914958347 0.9805875559718518
  endloop
endfacet
facet normal -0.9267959073568616 -0.3754963773792126 -0.007198380488689412
  outer loop
    vertex 780.5789017654047 105.75883468616365 0.939650798830603
    vertex 780.630135263424 105.5652750229261 4.44015429515766
    vertex 780.551718248933 105.75883468616365 4.439545233871778
  endloop
endfacet
facet normal -0.9267959073568616 -0.3754963773792126 -0.007198380488689412
  outer loop
    vertex 780.630135263424 105.5652750229261 4.44015429515766
    vertex 780.5789017654047 105.75883468616365 0.939650798830603
    vertex 780.657318779896 105.5652750229261 0.9402598601164849
  endloop
endfacet
facet normal 0.9923987851919684 0.12282198173069903 0.00770791497418098
  outer loop
    vertex 788.1993926239011 111.90688735995225 0.998838795103121
    vertex 788.1465595041269 112.1141480665807 4.498534010874446
    vertex 788.1722091074292 111.90688735995226 4.498733230144285
  endloop
endfacet
facet normal 0.9923987851919684 0.12282198173069903 0.00770791497418098
  outer loop
    vertex 788.1465595041269 112.1141480665807 4.498534010874446
    vertex 788.1993926239011 111.90688735995225 0.998838795103121
    vertex 788.1737430205987 112.11414806658067 0.9986395758332816
  endloop
endfacet
facet normal 0.38983564445189733 0.9208794723136197 0.003027835227304117
  outer loop
    vertex 787.7776140146628 112.60279347413412 4.495668428504401
    vertex 787.6124851061013 112.68420994938951 0.9942803118477855
    vertex 787.5853015896295 112.68420994938954 4.494174746888949
  endloop
endfacet
facet normal 0.38983564445189733 0.9208794723136197 0.003027835227304117
  outer loop
    vertex 787.6124851061013 112.68420994938951 0.9942803118477855
    vertex 787.7776140146628 112.60279347413412 4.495668428504401
    vertex 787.8047975311348 112.60279347413412 0.9957739934632378
  endloop
endfacet
facet normal 0.926795907356877 0.3754963773791742 0.0071983804886895306
  outer loop
    vertex 788.1737430205987 112.11414806658067 0.9986395758332816
    vertex 788.0681424896358 112.30770772981828 4.497924949588552
    vertex 788.1465595041269 112.1141480665807 4.498534010874446
  endloop
endfacet
facet normal 0.926795907356877 0.3754963773791742 0.0071983804886895306
  outer loop
    vertex 788.0681424896358 112.30770772981828 4.497924949588552
    vertex 788.1737430205987 112.11414806658067 0.9986395758332816
    vertex 788.0953260061076 112.30770772981825 0.9980305145473883
  endloop
endfacet
facet normal -0.007766484737038725 -0.9999698385831919 -6.032192390002727e-05
  outer loop
    vertex 782.0969454753308 105.15408110748774 0.951441373363533
    vertex 781.3198072003021 105.15990614673196 4.445510944852182
    vertex 781.3469907167739 105.15990614673196 0.9456165098110074
  endloop
endfacet
facet normal -0.007766484737038725 -0.9999698385831919 -6.032192390002727e-05
  outer loop
    vertex 781.3198072003021 105.15990614673196 4.445510944852182
    vertex 782.0969454753308 105.15408110748774 0.951441373363533
    vertex 782.0697619588591 105.15408110748774 4.451335808404708
  endloop
endfacet
facet normal 0.9903713258327395 -0.13822252899929086 0.007692167792113584
  outer loop
    vertex 782.8742446196177 105.74100632778375 0.9574786194818027
    vertex 782.8759268891095 105.94784360316088 4.457597253733196
    vertex 782.8470611031458 105.74100632778378 4.457373054522978
  endloop
endfacet
facet normal 0.9903713258327395 -0.13822252899929086 0.007692167792113584
  outer loop
    vertex 782.8759268891095 105.94784360316088 4.457597253733196
    vertex 782.8742446196177 105.74100632778375 0.9574786194818027
    vertex 782.9031104055813 105.94784360316088 0.9577028186920216
  endloop
endfacet
facet normal -0.12281827724587463 0.9924287182481697 -0.0009539238181413394
  outer loop
    vertex 786.6285157942007 112.71890164525651 4.486743436341504
    vertex 786.4484448553206 112.6932512683025 0.9852392656338882
    vertex 786.4212613388488 112.6932512683025 4.485133700675052
  endloop
endfacet
facet normal -0.12281827724587463 0.9924287182481697 -0.0009539238181413394
  outer loop
    vertex 786.4484448553206 112.6932512683025 0.9852392656338882
    vertex 786.6285157942007 112.71890164525651 4.486743436341504
    vertex 786.6556993106725 112.7189016452565 0.9868490013003404
  endloop
endfacet
facet normal -0.007766718991956538 2.5486963607935882e-15 0.9999698385831945
  outer loop
    vertex 787.5266997241104 105.13895620973396 4.493719588938862
    vertex 786.5694905102016 105.11913087202419 4.486284989719883
    vertex 787.3194452687585 105.11330583277997 4.492109853272409
  endloop
endfacet
facet normal -0.007766718991956538 2.5486963607935882e-15 0.9999698385831945
  outer loop
    vertex 786.5694905102016 105.11913087202419 4.486284989719883
    vertex 787.5266997241104 105.13895620973396 4.493719588938862
    vertex 786.3626594733298 105.14799752864711 4.484678542724964
  endloop
endfacet
facet normal -0.007766718991956538 2.5486963607935882e-15 0.9999698385831945
  outer loop
    vertex 786.3626594733298 105.14799752864711 4.484678542724964
    vertex 787.5266997241104 105.13895620973396 4.493719588938862
    vertex 787.7202535493143 105.21737558946472 4.49522291245142
  endloop
endfacet
facet normal -0.007766718991956538 2.5486963607935882e-15 0.9999698385831945
  outer loop
    vertex 786.3626594733298 105.14799752864711 4.484678542724964
    vertex 787.7202535493143 105.21737558946472 4.49522291245142
    vertex 786.1703470482964 105.2294140039025 4.483184861109523
  endloop
endfacet
facet normal -0.007766718991956538 2.5486963607935882e-15 0.9999698385831945
  outer loop
    vertex 786.1703470482964 105.2294140039025 4.483184861109523
    vertex 787.7202535493143 105.21737558946472 4.49522291245142
    vertex 787.8869163710455 105.34321982083775 4.496517374797022
  endloop
endfacet
facet normal -0.007766718991956538 2.5486963607935882e-15 0.9999698385831945
  outer loop
    vertex 786.1703470482964 105.2294140039025 4.483184861109523
    vertex 787.8869163710455 105.34321982083775 4.496517374797022
    vertex 786.0056590090563 105.35783189954883 4.481905736807194
  endloop
endfacet
facet normal -0.007766718991956538 2.5486963607935882e-15 0.9999698385831945
  outer loop
    vertex 786.0056590090563 105.35783189954883 4.481905736807194
    vertex 787.8869163710455 105.34321982083775 4.496517374797022
    vertex 788.0153303934262 105.50791282745243 4.497514760506048
  endloop
endfacet
facet normal -0.007766718991956538 2.5486963607935882e-15 0.9999698385831945
  outer loop
    vertex 786.0056590090563 105.35783189954883 4.481905736807194
    vertex 788.0153303934262 105.50791282745243 4.497514760506048
    vertex 785.8798185733236 105.52449974821833 4.480928340025373
  endloop
endfacet
facet normal -0.007766718991956538 2.5486963607935882e-15 0.9999698385831945
  outer loop
    vertex 785.8798185733236 105.52449974821833 4.480928340025373
    vertex 788.0153303934262 105.50791282745243 4.497514760506048
    vertex 788.0967444130454 105.70023105307601 4.498147099390679
  endloop
endfacet
facet normal -0.007766718991956538 2.5486963607935882e-15 0.9999698385831945
  outer loop
    vertex 785.8798185733236 105.52449974821833 4.480928340025373
    vertex 788.0967444130454 105.70023105307601 4.498147099390679
    vertex 785.8014015588324 105.71805941145588 4.480319278739479
  endloop
endfacet
facet normal -0.007766718991956538 2.5486963607935882e-15 0.9999698385831945
  outer loop
    vertex 785.8014015588324 105.71805941145588 4.480319278739479
    vertex 788.0967444130454 105.70023105307601 4.498147099390679
    vertex 788.1256101990089 105.90706832845311 4.4983712986008975
  endloop
endfacet
facet normal -0.007766718991956538 2.5486963607935882e-15 0.9999698385831945
  outer loop
    vertex 785.8014015588324 105.71805941145588 4.480319278739479
    vertex 788.1256101990089 105.90706832845311 4.4983712986008975
    vertex 785.7757519555302 105.9253201180843 4.480120059469629
  endloop
endfacet
facet normal -0.007766718991956538 2.5486963607935882e-15 0.9999698385831945
  outer loop
    vertex 785.7757519555302 105.9253201180843 4.480120059469629
    vertex 788.1256101990089 105.90706832845311 4.4983712986008975
    vertex 788.1722091074292 111.90688735995226 4.498733230144285
  endloop
endfacet
facet normal -0.007766718991956538 2.5486963607935882e-15 0.9999698385831945
  outer loop
    vertex 785.7757519555302 105.9253201180843 4.480120059469629
    vertex 788.1722091074292 111.90688735995226 4.498733230144285
    vertex 785.8223508639503 111.92513914958347 4.480481991013016
  endloop
endfacet
facet normal -0.007766718991956538 2.5486963607935882e-15 0.9999698385831945
  outer loop
    vertex 785.8223508639503 111.92513914958347 4.480481991013016
    vertex 788.1722091074292 111.90688735995226 4.498733230144285
    vertex 788.1465595041269 112.1141480665807 4.498534010874446
  endloop
endfacet
facet normal -0.007766718991956538 2.5486963607935882e-15 0.9999698385831945
  outer loop
    vertex 785.8223508639503 111.92513914958347 4.480481991013016
    vertex 788.1465595041269 112.1141480665807 4.498534010874446
    vertex 785.851216649914 112.13197642496056 4.480706190223246
  endloop
endfacet
facet normal -0.007766718991956538 2.5486963607935882e-15 0.9999698385831945
  outer loop
    vertex 785.851216649914 112.13197642496056 4.480706190223246
    vertex 788.1465595041269 112.1141480665807 4.498534010874446
    vertex 788.0681424896358 112.30770772981828 4.497924949588552
  endloop
endfacet
facet normal -0.007766718991956538 2.5486963607935882e-15 0.9999698385831945
  outer loop
    vertex 785.851216649914 112.13197642496056 4.480706190223246
    vertex 788.0681424896358 112.30770772981828 4.497924949588552
    vertex 785.9326306695332 112.32429465058408 4.481338529107876
  endloop
endfacet
facet normal -0.007766718991956538 2.5486963607935882e-15 0.9999698385831945
  outer loop
    vertex 785.9326306695332 112.32429465058408 4.481338529107876
    vertex 788.0681424896358 112.30770772981828 4.497924949588552
    vertex 787.9423020539032 112.4743755784878 4.496947552806719
  endloop
endfacet
facet normal -0.007766718991956538 2.5486963607935882e-15 0.9999698385831945
  outer loop
    vertex 785.9326306695332 112.32429465058408 4.481338529107876
    vertex 787.9423020539032 112.4743755784878 4.496947552806719
    vertex 786.0610446919138 112.48898765719872 4.4823359148168915
  endloop
endfacet
facet normal -0.007766718991956538 2.5486963607935882e-15 0.9999698385831945
  outer loop
    vertex 786.0610446919138 112.48898765719872 4.4823359148168915
    vertex 787.9423020539032 112.4743755784878 4.496947552806719
    vertex 787.7776140146628 112.60279347413412 4.495668428504401
  endloop
endfacet
facet normal -0.007766718991956538 2.5486963607935882e-15 0.9999698385831945
  outer loop
    vertex 786.0610446919138 112.48898765719872 4.4823359148168915
    vertex 787.7776140146628 112.60279347413412 4.495668428504401
    vertex 786.2277075136449 112.61483188857174 4.483630377162504
  endloop
endfacet
facet normal -0.007766718991956538 2.5486963607935882e-15 0.9999698385831945
  outer loop
    vertex 786.2277075136449 112.61483188857174 4.483630377162504
    vertex 787.7776140146628 112.60279347413412 4.495668428504401
    vertex 787.5853015896295 112.68420994938954 4.494174746888949
  endloop
endfacet
facet normal -0.007766718991956538 2.5486963607935882e-15 0.9999698385831945
  outer loop
    vertex 786.2277075136449 112.61483188857174 4.483630377162504
    vertex 787.5853015896295 112.68420994938954 4.494174746888949
    vertex 786.4212613388488 112.6932512683025 4.485133700675052
  endloop
endfacet
facet normal -0.007766718991956538 2.5486963607935882e-15 0.9999698385831945
  outer loop
    vertex 786.4212613388488 112.6932512683025 4.485133700675052
    vertex 787.5853015896295 112.68420994938954 4.494174746888949
    vertex 787.3784705527577 112.71307660601246 4.49256829989403
  endloop
endfacet
facet normal -0.007766718991956538 2.5486963607935882e-15 0.9999698385831945
  outer loop
    vertex 786.4212613388488 112.6932512683025 4.485133700675052
    vertex 787.3784705527577 112.71307660601246 4.49256829989403
    vertex 786.6285157942007 112.71890164525651 4.486743436341504
  endloop
endfacet
facet normal -0.37548505187643844 0.9268238616776697 -0.0029163748456041737
  outer loop
    vertex 786.4212613388488 112.6932512683025 4.485133700675052
    vertex 786.2548910301167 112.61483188857174 0.9837359421213404
    vertex 786.2277075136449 112.61483188857174 4.483630377162504
  endloop
endfacet
facet normal -0.37548505187643844 0.9268238616776697 -0.0029163748456041737
  outer loop
    vertex 786.2548910301167 112.61483188857174 0.9837359421213404
    vertex 786.4212613388488 112.6932512683025 4.485133700675052
    vertex 786.4484448553206 112.6932512683025 0.9852392656338882
  endloop
endfacet
facet normal 0.7885775473446025 -0.6149048203570529 0.006124844947594738
  outer loop
    vertex 787.9140998875173 105.34321982083775 0.9966229397558469
    vertex 788.0153303934262 105.50791282745243 4.497514760506048
    vertex 787.8869163710455 105.34321982083775 4.496517374797022
  endloop
endfacet
facet normal 0.7885775473446025 -0.6149048203570529 0.006124844947594738
  outer loop
    vertex 788.0153303934262 105.50791282745243 4.497514760506048
    vertex 787.9140998875173 105.34321982083775 0.9966229397558469
    vertex 788.042513909898 105.50791282745243 0.9976203254648734
  endloop
endfacet
facet normal -0.9267959073568616 -0.3754963773792126 -0.007198380488689412
  outer loop
    vertex 785.8285850753042 105.71805941145588 0.9804248436983043
    vertex 785.8798185733236 105.52449974821833 4.480928340025373
    vertex 785.8014015588324 105.71805941145588 4.480319278739479
  endloop
endfacet
facet normal -0.9267959073568616 -0.3754963773792126 -0.007198380488689412
  outer loop
    vertex 785.8798185733236 105.52449974821833 4.480928340025373
    vertex 785.8285850753042 105.71805941145588 0.9804248436983043
    vertex 785.9070020897954 105.52449974821833 0.9810339049841975
  endloop
endfacet
facet normal -0.9208516972839595 0.38984740280206376 -0.007152212086921575
  outer loop
    vertex 780.7101308761055 112.36506992529185 0.9406700491989886
    vertex 780.6015333400145 112.17275169966832 4.439932145355544
    vertex 780.6829473596337 112.36506992529185 4.440564484240164
  endloop
endfacet
facet normal -0.9208516972839595 0.38984740280206376 -0.007152212086921575
  outer loop
    vertex 780.6015333400145 112.17275169966832 4.439932145355544
    vertex 780.7101308761055 112.36506992529185 0.9406700491989886
    vertex 780.6287168564863 112.1727516996683 0.9400377103143693
  endloop
endfacet
facet normal 0.6025631407399434 -0.7980574905827137 0.004680079746875871
  outer loop
    vertex 787.9140998875173 105.34321982083775 0.9966229397558469
    vertex 787.7202535493143 105.21737558946472 4.49522291245142
    vertex 787.7474370657862 105.21737558946472 0.9953284774102454
  endloop
endfacet
facet normal 0.6025631407399434 -0.7980574905827137 0.004680079746875871
  outer loop
    vertex 787.7202535493143 105.21737558946472 4.49522291245142
    vertex 787.9140998875173 105.34321982083775 0.9966229397558469
    vertex 787.8869163710455 105.34321982083775 4.496517374797022
  endloop
endfacet
facet normal 0.9208516972839839 -0.3898474028020067 0.007152212086921763
  outer loop
    vertex 788.042513909898 105.50791282745243 0.9976203254648734
    vertex 788.0967444130454 105.70023105307601 4.498147099390679
    vertex 788.0153303934262 105.50791282745243 4.497514760506048
  endloop
endfacet
facet normal 0.9208516972839839 -0.3898474028020067 0.007152212086921763
  outer loop
    vertex 788.0967444130454 105.70023105307601 4.498147099390679
    vertex 788.042513909898 105.50791282745243 0.9976203254648734
    vertex 788.1239279295172 105.70023105307598 0.998252664349504
  endloop
endfacet
facet normal -0.1382183600121689 -0.990401197736043 -0.0010735355410939722
  outer loop
    vertex 786.5966740266734 105.11913087202419 0.9863905546787087
    vertex 786.3626594733298 105.14799752864711 4.484678542724964
    vertex 786.3898429898017 105.14799752864711 0.984784107683789
  endloop
endfacet
facet normal -0.1382183600121689 -0.990401197736043 -0.0010735355410939722
  outer loop
    vertex 786.3626594733298 105.14799752864711 4.484678542724964
    vertex 786.5966740266734 105.11913087202419 0.9863905546787087
    vertex 786.5694905102016 105.11913087202419 4.486284989719883
  endloop
endfacet
facet normal -0.7885775473447526 0.6149048203568603 -0.006124844947595904
  outer loop
    vertex 786.0882282083857 112.48898765719872 0.9824414797757277
    vertex 785.9326306695332 112.32429465058408 4.481338529107876
    vertex 786.0610446919138 112.48898765719872 4.4823359148168915
  endloop
endfacet
facet normal -0.7885775473447526 0.6149048203568603 -0.006124844947595904
  outer loop
    vertex 785.9326306695332 112.32429465058408 4.481338529107876
    vertex 786.0882282083857 112.48898765719872 0.9824414797757277
    vertex 785.959814186005 112.32429465058408 0.9814440940667124
  endloop
endfacet
facet normal 0.798033420038344 0.602581315445842 0.006198288268782247
  outer loop
    vertex 788.0953260061076 112.30770772981825 0.9980305145473883
    vertex 787.9423020539032 112.4743755784878 4.496947552806719
    vertex 788.0681424896358 112.30770772981828 4.497924949588552
  endloop
endfacet
facet normal 0.798033420038344 0.602581315445842 0.006198288268782247
  outer loop
    vertex 787.9423020539032 112.4743755784878 4.496947552806719
    vertex 788.0953260061076 112.30770772981825 0.9980305145473883
    vertex 787.969485570375 112.4743755784878 0.9970531177655555
  endloop
endfacet
facet normal -0.007766484736719123 -0.9999698385831943 -6.0321923900767856e-05
  outer loop
    vertex 788.3527818853513 104.90554514607152 -2.255973186038318e-14
    vertex 780.3454977417505 104.96767889800726 0.9378379606895162
    vertex 780.3532644607425 104.96767889800726 -0.06213187789369598
  endloop
endfacet
facet normal -0.007766484736719123 -0.9999698385831943 -6.0321923900767856e-05
  outer loop
    vertex 780.3454977417505 104.96767889800726 0.9378379606895162
    vertex 788.3527818853513 104.90554514607152 -2.255973186038318e-14
    vertex 788.3450151663593 104.90554514607152 0.9999698385831783
  endloop
endfacet
facet normal 0.3754850518762851 -0.9268238616777319 0.002916374845602983
  outer loop
    vertex 787.7474370657862 105.21737558946472 0.9953284774102454
    vertex 787.5266997241104 105.13895620973396 4.493719588938862
    vertex 787.5538832405823 105.13895620973396 0.9938251538976863
  endloop
endfacet
facet normal 0.3754850518762851 -0.9268238616777319 0.002916374845602983
  outer loop
    vertex 787.5266997241104 105.13895620973396 4.493719588938862
    vertex 787.7474370657862 105.21737558946472 0.9953284774102454
    vertex 787.7202535493143 105.21737558946472 4.49522291245142
  endloop
endfacet
facet normal -0.9999396780761002 0.007766718991941538 -0.007766484736707831
  outer loop
    vertex 785.8223508639503 111.92513914958347 4.480481991013016
    vertex 785.8029354720019 105.9253201180843 0.9802256244284536
    vertex 785.7757519555302 105.9253201180843 4.480120059469629
  endloop
endfacet
facet normal -0.9999396780761002 0.007766718991941538 -0.007766484736707831
  outer loop
    vertex 785.8029354720019 105.9253201180843 0.9802256244284536
    vertex 785.8223508639503 111.92513914958347 4.480481991013016
    vertex 785.8495343804221 111.92513914958347 0.9805875559718518
  endloop
endfacet
facet normal -0.7980334200381176 -0.6025813154461418 -0.00619828826878049
  outer loop
    vertex 785.9070020897954 105.52449974821833 0.9810339049841975
    vertex 786.0056590090563 105.35783189954883 4.481905736807194
    vertex 785.8798185733236 105.52449974821833 4.480928340025373
  endloop
endfacet
facet normal -0.7980334200381176 -0.6025813154461418 -0.00619828826878049
  outer loop
    vertex 786.0056590090563 105.35783189954883 4.481905736807194
    vertex 785.9070020897954 105.52449974821833 0.9810339049841975
    vertex 786.032842525528 105.3578318995488 0.9820113017660191
  endloop
endfacet
facet normal 0.9999396780761 -0.0077667189919716165 0.007766484736707829
  outer loop
    vertex 788.1527937154807 105.90706832845311 0.9984768635597229
    vertex 788.1722091074292 111.90688735995226 4.498733230144285
    vertex 788.1256101990089 105.90706832845311 4.4983712986008975
  endloop
endfacet
facet normal 0.9999396780761 -0.0077667189919716165 0.007766484736707829
  outer loop
    vertex 788.1722091074292 111.90688735995226 4.498733230144285
    vertex 788.1527937154807 105.90706832845311 0.9984768635597229
    vertex 788.1993926239011 111.90688735995225 0.998838795103121
  endloop
endfacet
facet normal 0.9903713258327987 -0.1382225289988666 0.007692167792114044
  outer loop
    vertex 788.1239279295172 105.70023105307598 0.998252664349504
    vertex 788.1256101990089 105.90706832845311 4.4983712986008975
    vertex 788.0967444130454 105.70023105307601 4.498147099390679
  endloop
endfacet
facet normal 0.9903713258327987 -0.1382225289988666 0.007692167792114044
  outer loop
    vertex 788.1256101990089 105.90706832845311 4.4983712986008975
    vertex 788.1239279295172 105.70023105307598 0.998252664349504
    vertex 788.1527937154807 105.90706832845311 0.9984768635597229
  endloop
endfacet
facet normal -0.9923987851919676 -0.12282198173070598 -0.007707914974180974
  outer loop
    vertex 785.8029354720019 105.9253201180843 0.9802256244284536
    vertex 785.8014015588324 105.71805941145588 4.480319278739479
    vertex 785.7757519555302 105.9253201180843 4.480120059469629
  endloop
endfacet
facet normal -0.9923987851919676 -0.12282198173070598 -0.007707914974180974
  outer loop
    vertex 785.8014015588324 105.71805941145588 4.480319278739479
    vertex 785.8029354720019 105.9253201180843 0.9802256244284536
    vertex 785.8285850753042 105.71805941145588 0.9804248436983043
  endloop
endfacet
facet normal -0.6148862739562857 -0.7886013326782346 -0.004775792946509291
  outer loop
    vertex 786.1975305647684 105.2294140039025 0.983290426068348
    vertex 786.0056590090563 105.35783189954883 4.481905736807194
    vertex 786.032842525528 105.3578318995488 0.9820113017660191
  endloop
endfacet
facet normal -0.6148862739562857 -0.7886013326782346 -0.004775792946509291
  outer loop
    vertex 786.0056590090563 105.35783189954883 4.481905736807194
    vertex 786.1975305647684 105.2294140039025 0.983290426068348
    vertex 786.1703470482964 105.2294140039025 4.483184861109523
  endloop
endfacet
facet normal 0.007766718991957252 -1.4589622314933917e-15 -0.9999698385831945
  outer loop
    vertex 780.3532644607425 104.96767889800726 -0.06213187789369598
    vertex 788.414913763245 112.90530385473713 0.0004825753911561925
    vertex 788.3527818853513 104.90554514607152 -2.255973186038318e-14
  endloop
endfacet
facet normal 0.007766718991957252 -1.4589622314933917e-15 -0.9999698385831945
  outer loop
    vertex 788.414913763245 112.90530385473713 0.0004825753911561925
    vertex 780.3532644607425 104.96767889800726 -0.06213187789369598
    vertex 780.4153963386361 112.96743760667283 -0.06164930250250595
  endloop
endfacet
facet normal -0.007766484737038725 -0.9999698385831919 -6.032192390002727e-05
  outer loop
    vertex 787.3466287852303 105.11330583277997 0.9922154182312343
    vertex 786.5694905102016 105.11913087202419 4.486284989719883
    vertex 786.5966740266734 105.11913087202419 0.9863905546787087
  endloop
endfacet
facet normal -0.007766484737038725 -0.9999698385831919 -6.032192390002727e-05
  outer loop
    vertex 786.5694905102016 105.11913087202419 4.486284989719883
    vertex 787.3466287852303 105.11330583277997 0.9922154182312343
    vertex 787.3194452687585 105.11330583277997 4.492109853272409
  endloop
endfacet
facet normal 0.12281827724582145 -0.9924287182481761 0.0009539238181409263
  outer loop
    vertex 787.5538832405823 105.13895620973396 0.9938251538976863
    vertex 787.3194452687585 105.11330583277997 4.492109853272409
    vertex 787.3466287852303 105.11330583277997 0.9922154182312343
  endloop
endfacet
facet normal 0.12281827724582145 -0.9924287182481761 0.0009539238181409263
  outer loop
    vertex 787.3194452687585 105.11330583277997 4.492109853272409
    vertex 787.5538832405823 105.13895620973396 0.9938251538976863
    vertex 787.5266997241104 105.13895620973396 4.493719588938862
  endloop
endfacet
facet normal -0.3898356444520037 -0.9208794723135745 -0.003027835227304944
  outer loop
    vertex 786.3898429898017 105.14799752864711 0.984784107683789
    vertex 786.1703470482964 105.2294140039025 4.483184861109523
    vertex 786.1975305647684 105.2294140039025 0.983290426068348
  endloop
endfacet
facet normal -0.3898356444520037 -0.9208794723135745 -0.003027835227304944
  outer loop
    vertex 786.1703470482964 105.2294140039025 4.483184861109523
    vertex 786.3898429898017 105.14799752864711 0.984784107683789
    vertex 786.3626594733298 105.14799752864711 4.484678542724964
  endloop
endfacet
endsolid RGB_LED_matrix_3D_print
